<svg width="58" height="58" viewBox="0 0 58 58" fill="none" xmlns="http://www.w3.org/2000/svg">
    <circle cx="29" cy="29" r="29" fill="white"/>
    <path d="M19 29C19 29.3315 19.1317 29.6495 19.3661 29.8839C19.6005 30.1183 19.9185 30.25 20.25 30.25H29.7375L26.8625 33.1125C26.7453 33.2287 26.6523 33.367 26.5889 33.5193C26.5254 33.6716 26.4928 33.835 26.4928 34C26.4928 34.165 26.5254 34.3284 26.5889 34.4807C26.6523 34.633 26.7453 34.7713 26.8625 34.8875C26.9787 35.0047 27.117 35.0977 27.2693 35.1611C27.4216 35.2246 27.585 35.2572 27.75 35.2572C27.915 35.2572 28.0784 35.2246 28.2307 35.1611C28.383 35.0977 28.5213 35.0047 28.6375 34.8875L33.6375 29.8875C33.7513 29.7686 33.8405 29.6284 33.9 29.475C34.025 29.1707 34.025 28.8293 33.9 28.525C33.8405 28.3716 33.7513 28.2314 33.6375 28.1125L28.6375 23.1125C28.521 22.996 28.3826 22.9035 28.2303 22.8404C28.078 22.7774 27.9148 22.7449 27.75 22.7449C27.5852 22.7449 27.422 22.7774 27.2697 22.8404C27.1174 22.9035 26.979 22.996 26.8625 23.1125C26.746 23.229 26.6535 23.3674 26.5904 23.5197C26.5273 23.672 26.4949 23.8352 26.4949 24C26.4949 24.1648 26.5273 24.328 26.5904 24.4803C26.6535 24.6326 26.746 24.771 26.8625 24.8875L29.7375 27.75H20.25C19.9185 27.75 19.6005 27.8817 19.3661 28.1161C19.1317 28.3505 19 28.6685 19 29ZM35.25 16.5H22.75C21.7554 16.5 20.8016 16.8951 20.0983 17.5983C19.3951 18.3016 19 19.2554 19 20.25V24C19 24.3315 19.1317 24.6495 19.3661 24.8839C19.6005 25.1183 19.9185 25.25 20.25 25.25C20.5815 25.25 20.8995 25.1183 21.1339 24.8839C21.3683 24.6495 21.5 24.3315 21.5 24V20.25C21.5 19.9185 21.6317 19.6005 21.8661 19.3661C22.1005 19.1317 22.4185 19 22.75 19H35.25C35.5815 19 35.8995 19.1317 36.1339 19.3661C36.3683 19.6005 36.5 19.9185 36.5 20.25V37.75C36.5 38.0815 36.3683 38.3995 36.1339 38.6339C35.8995 38.8683 35.5815 39 35.25 39H22.75C22.4185 39 22.1005 38.8683 21.8661 38.6339C21.6317 38.3995 21.5 38.0815 21.5 37.75V34C21.5 33.6685 21.3683 33.3505 21.1339 33.1161C20.8995 32.8817 20.5815 32.75 20.25 32.75C19.9185 32.75 19.6005 32.8817 19.3661 33.1161C19.1317 33.3505 19 33.6685 19 34V37.75C19 38.7446 19.3951 39.6984 20.0983 40.4017C20.8016 41.1049 21.7554 41.5 22.75 41.5H35.25C36.2446 41.5 37.1984 41.1049 37.9017 40.4017C38.6049 39.6984 39 38.7446 39 37.75V20.25C39 19.2554 38.6049 18.3016 37.9017 17.5983C37.1984 16.8951 36.2446 16.5 35.25 16.5Z" fill="#00AB6D"/>
</svg>
